<svg width="76" height="17" viewBox="0 0 76 17" fill="none" xmlns="http://www.w3.org/2000/svg">
<line x1="16" y1="8.5" x2="60" y2="8.5" stroke="#AD9388"/>
<circle cx="8" cy="9" r="7.5" stroke="#AD9388"/>
<circle cx="38" cy="9" r="7.5" fill="#EFEFEF" stroke="#AD9388"/>
<circle cx="68" cy="9" r="8" fill="#AD9388"/>
<path d="M5.34919 14H10.9772V12.936H8.91919V3.738H7.93919C7.37919 4.06 6.72119 4.298 5.81119 4.466V5.278H7.63119V12.936H5.34919V14Z" fill="#AD9388"/>
<path d="M34.7332 14H41.1872V12.894H38.3452C37.8272 12.894 37.1972 12.95 36.6652 12.992C39.0732 10.71 40.6832 8.624 40.6832 6.58C40.6832 4.746 39.5352 3.542 37.7012 3.542C36.3992 3.542 35.5172 4.144 34.6772 5.054L35.4192 5.782C35.9792 5.11 36.7072 4.592 37.5472 4.592C38.8212 4.592 39.4372 5.446 39.4372 6.622C39.4372 8.386 37.9532 10.43 34.7332 13.244V14Z" fill="#AD9388"/>
<path d="M67.8132 14.182C69.6332 14.182 71.1032 13.09 71.1032 11.256C71.1032 9.856 70.1372 8.932 68.9192 8.652V8.596C70.0112 8.19 70.7532 7.364 70.7532 6.118C70.7532 4.466 69.4932 3.542 67.7712 3.542C66.5812 3.542 65.6712 4.06 64.9012 4.774L65.5872 5.586C66.1612 5.012 66.8892 4.592 67.7152 4.564C68.7792 4.592 69.4512 5.222 69.4512 6.216C69.4512 7.322 68.7232 8.176 66.6092 8.176V9.156C68.9752 9.156 69.8012 9.982 69.8012 11.214C69.8012 12.39 68.9332 13.118 67.7152 13.118C66.5532 13.118 65.7692 12.572 65.1672 11.942L64.5232 12.782C65.1952 13.51 66.2032 14.182 67.8132 14.182Z" fill="white"/>
</svg>
